<svg width="28" height="28" viewBox="0 0 28 28" fill="none" xmlns="http://www.w3.org/2000/svg">
<path d="M21.2658 9.88003L25.3566 8.4942L15.7351 5.29395L12.0104 6.55908C12.0113 6.55839 21.2639 9.88333 21.2658 9.88003ZM19.7551 8.2362C19.7181 8.34049 19.6412 8.42581 19.5414 8.47341C19.4415 8.52102 19.3268 8.52702 19.2225 8.49008L15.219 7.09177C15.1154 7.05482 15.0306 6.97839 14.9832 6.87916C14.9357 6.77992 14.9294 6.66594 14.9657 6.56209C15.0019 6.45824 15.0778 6.37294 15.1767 6.32483C15.2757 6.27671 15.3896 6.26967 15.4937 6.30525L19.4971 7.7077C19.6013 7.74376 19.6869 7.81962 19.7352 7.91866C19.7836 8.01771 19.7908 8.1319 19.7551 8.2362Z" fill="#282828"/>
<path d="M10.7536 6.99195C10.7493 6.98929 6.32986 8.49427 6.32568 8.49427L15.735 11.757L19.9965 10.3129L10.7536 6.99195ZM16.1137 10.5168C16.0698 10.5181 16.026 10.511 15.9847 10.496L11.6442 9.05192C11.5412 9.01611 11.4565 8.94117 11.4084 8.84334C11.3602 8.74551 11.3526 8.63267 11.3871 8.52924C11.4215 8.42581 11.4954 8.34013 11.5926 8.29074C11.6898 8.24136 11.8025 8.23225 11.9064 8.26538L16.2469 9.70529C16.3392 9.73801 16.4172 9.80215 16.467 9.8865C16.5169 9.97086 16.5355 10.07 16.5196 10.1667C16.5038 10.2634 16.4544 10.3515 16.3802 10.4155C16.306 10.4795 16.2117 10.5153 16.1137 10.5168Z" fill="#282828"/>
<path d="M21.6736 10.625V17.0547C21.6732 17.1648 21.6292 17.2703 21.5512 17.3481C21.4732 17.4258 21.3676 17.4695 21.2574 17.4695C21.1473 17.4695 21.0417 17.4258 20.9637 17.3481C20.8856 17.2703 20.8416 17.1648 20.8413 17.0547V10.9039L16.2719 12.4561V22.7061L26.2472 19.3186V9.07275L21.6736 10.625ZM17.82 21.2911C17.7409 21.3259 17.6555 21.3443 17.569 21.3451C17.4826 21.3459 17.3969 21.3291 17.3172 21.2957C17.2374 21.2624 17.1653 21.2132 17.1052 21.1511C17.045 21.089 16.9982 21.0153 16.9674 20.9345C16.9366 20.8538 16.9226 20.7676 16.9261 20.6812C16.9297 20.5949 16.9508 20.5101 16.9881 20.4321C17.0254 20.3542 17.0782 20.2846 17.1432 20.2277C17.2082 20.1707 17.2842 20.1276 17.3664 20.1009C17.4455 20.0661 17.5309 20.0478 17.6173 20.047C17.7037 20.0462 17.7894 20.063 17.8692 20.0964C17.9489 20.1297 18.021 20.1789 18.0812 20.241C18.1413 20.3031 18.1882 20.3768 18.219 20.4575C18.2497 20.5383 18.2638 20.6245 18.2602 20.7109C18.2567 20.7972 18.2356 20.882 18.1983 20.9599C18.161 21.0379 18.1082 21.1075 18.0432 21.1644C17.9781 21.2213 17.9022 21.2645 17.82 21.2911ZM19.8508 20.5962C19.7715 20.6306 19.6861 20.6487 19.5997 20.6492C19.5132 20.6498 19.4276 20.6328 19.3479 20.5994C19.2682 20.5659 19.1961 20.5167 19.1359 20.4546C19.0757 20.3925 19.0288 20.3189 18.9978 20.2382C18.9669 20.1575 18.9526 20.0713 18.9559 19.9849C18.9592 19.8986 18.9799 19.8137 19.0168 19.7356C19.0537 19.6574 19.1061 19.5875 19.1708 19.5302C19.2354 19.4728 19.3111 19.4291 19.3931 19.4018C19.4723 19.3673 19.5578 19.3493 19.6442 19.3487C19.7307 19.3482 19.8163 19.3651 19.896 19.3986C19.9757 19.4321 20.0478 19.4813 20.108 19.5434C20.1681 19.6055 20.2151 19.6791 20.246 19.7598C20.277 19.8405 20.2912 19.9266 20.288 20.013C20.2847 20.0994 20.264 20.1842 20.2271 20.2624C20.1901 20.3405 20.1378 20.4104 20.0731 20.4678C20.0084 20.5251 19.9328 20.5688 19.8508 20.5962Z" fill="#282828"/>
<path d="M5.46007 11.1619H4.66603C4.55589 11.1622 4.45039 11.2062 4.37263 11.2842C4.29488 11.3623 4.25122 11.4679 4.25122 11.578C4.25122 11.6882 4.29488 11.7938 4.37263 11.8718C4.45039 11.9498 4.55589 11.9938 4.66603 11.9942H7.91125C8.02057 11.9958 8.12489 12.0403 8.20164 12.1182C8.27839 12.1961 8.32142 12.301 8.32142 12.4104C8.32142 12.5197 8.27839 12.6246 8.20164 12.7025C8.12489 12.7804 8.02057 12.8249 7.91125 12.8265H5.46007V13.9002C5.04976 13.9006 4.22107 13.8999 3.81098 13.9002C3.70191 13.9022 3.59797 13.9469 3.52154 14.0247C3.4451 14.1026 3.40228 14.2073 3.40228 14.3164C3.40229 14.4255 3.44512 14.5302 3.52156 14.608C3.598 14.6859 3.70194 14.7306 3.81101 14.7325H9.41357C9.52284 14.7342 9.62708 14.7788 9.70377 14.8566C9.78046 14.9345 9.82344 15.0394 9.82344 15.1487C9.82344 15.258 9.78046 15.3629 9.70377 15.4407C9.62708 15.5186 9.52284 15.5632 9.41357 15.5648H5.46007V16.6385H2.16332C2.05391 16.64 1.94948 16.6845 1.87263 16.7623C1.79577 16.8402 1.75269 16.9453 1.75269 17.0547C1.75269 17.1641 1.79577 17.2691 1.87263 17.347C1.94948 17.4249 2.05391 17.4694 2.16332 17.4708C3.8659 17.4717 6.47068 17.4702 8.15259 17.4708C8.26189 17.4725 8.36616 17.517 8.44288 17.5949C8.5196 17.6728 8.5626 17.7777 8.56259 17.887C8.56259 17.9963 8.51958 18.1012 8.44286 18.1791C8.36614 18.257 8.26186 18.3015 8.15256 18.3031H5.46007V19.2811L15.4395 22.7061V12.5352L5.46007 9.07275V11.1619Z" fill="#282828"/>
</svg>
