<svg width="36" height="26" viewBox="0 0 36 26" fill="none" xmlns="http://www.w3.org/2000/svg">
<rect x="13" y="7" width="11" height="11" fill="white"/>
<path d="M34.5968 2.50738C33.2973 0.962635 30.8981 0.33252 26.3161 0.33252H9.68354C4.99668 0.33252 2.55681 1.00328 1.26221 2.6479C0 4.25141 0 6.61405 0 9.88402V16.1165C0 22.4515 1.4976 25.6679 9.68354 25.6679H26.3162C30.2897 25.6679 32.4915 25.1119 33.9159 23.7487C35.3767 22.3507 36 20.0682 36 16.1165V9.88402C36 6.43556 35.9023 4.05898 34.5968 2.50738ZM23.1121 13.8607L15.5593 17.8081C15.3905 17.8963 15.2058 17.9401 15.0214 17.9401C14.8126 17.9401 14.6043 17.8839 14.4197 17.7722C14.0723 17.5617 13.8601 17.185 13.8601 16.7788V8.90946C13.8601 8.50394 14.0717 8.12768 14.4185 7.91702C14.7653 7.70636 15.1968 7.69196 15.5566 7.87893L23.1094 11.8008C23.4937 12.0004 23.735 12.397 23.7356 12.8299C23.7361 13.263 23.4958 13.6603 23.1121 13.8607Z" fill="#FF0000"/>
</svg>
